<svg width="24" height="25" viewBox="0 0 24 25" fill="none" xmlns="http://www.w3.org/2000/svg">
<path d="M9.69641 13.7478C9.62441 13.7478 8.04041 13.7478 7.32041 13.7478C6.93641 13.7478 6.81641 13.6038 6.81641 13.2438C6.81641 12.2838 6.81641 11.2998 6.81641 10.3398C6.81641 9.95583 6.96041 9.83583 7.32041 9.83583H9.69641C9.69641 9.76383 9.69641 8.37183 9.69641 7.72383C9.69641 6.76383 9.86441 5.85183 10.3444 5.01183C10.8484 4.14783 11.5684 3.57183 12.4804 3.23583C13.0804 3.01983 13.6804 2.92383 14.3284 2.92383H16.6804C17.0164 2.92383 17.1604 3.06783 17.1604 3.40383V6.13983C17.1604 6.47583 17.0164 6.61983 16.6804 6.61983C16.0324 6.61983 15.3844 6.61983 14.7364 6.64383C14.0884 6.64383 13.7524 6.95583 13.7524 7.62783C13.7284 8.34783 13.7524 9.04383 13.7524 9.78783H16.5364C16.9204 9.78783 17.0644 9.93183 17.0644 10.3158V13.2198C17.0644 13.6038 16.9444 13.7238 16.5364 13.7238C15.6724 13.7238 13.8244 13.7238 13.7524 13.7238V21.5478C13.7524 21.9558 13.6324 22.0998 13.2004 22.0998C12.1924 22.0998 11.2084 22.0998 10.2004 22.0998C9.84041 22.0998 9.69641 21.9558 9.69641 21.5958C9.69641 19.0758 9.69641 13.8198 9.69641 13.7478Z" fill="white"/>
</svg>
