<svg width="24" height="25" viewBox="0 0 24 25" fill="none" xmlns="http://www.w3.org/2000/svg">
<path d="M16.2744 2.9707H7.37178C4.47435 2.9707 2.11719 5.32786 2.11719 8.22529V17.128C2.11719 20.0253 4.47435 22.3825 7.37178 22.3825H16.2745C19.1718 22.3825 21.529 20.0253 21.529 17.128V8.22529C21.529 5.32786 19.1718 2.9707 16.2744 2.9707ZM11.8231 17.9843C8.89632 17.9843 6.51531 15.6033 6.51531 12.6766C6.51531 9.74983 8.89632 7.36883 11.8231 7.36883C14.7498 7.36883 17.1308 9.74983 17.1308 12.6766C17.1308 15.6033 14.7498 17.9843 11.8231 17.9843ZM17.2577 8.62057C16.3928 8.62057 15.6894 7.9171 15.6894 7.05219C15.6894 6.18729 16.3928 5.48366 17.2577 5.48366C18.1227 5.48366 18.8263 6.18729 18.8263 7.05219C18.8263 7.9171 18.1227 8.62057 17.2577 8.62057Z" fill="white"/>
<path d="M11.8231 8.50684C9.52397 8.50684 7.65332 10.3773 7.65332 12.6766C7.65332 14.9757 9.52397 16.8463 11.8231 16.8463C14.1223 16.8463 15.9928 14.9757 15.9928 12.6766C15.9928 10.3773 14.1223 8.50684 11.8231 8.50684Z" fill="white"/>
<path d="M17.2578 6.62183C17.0205 6.62183 16.8274 6.81495 16.8274 7.0522C16.8274 7.28946 17.0205 7.48258 17.2578 7.48258C17.4952 7.48258 17.6883 7.28961 17.6883 7.0522C17.6883 6.8148 17.4952 6.62183 17.2578 6.62183Z" fill="white"/>
</svg>
