<svg width="24" height="25" viewBox="0 0 24 25" fill="none" xmlns="http://www.w3.org/2000/svg">
<path d="M20.5621 7.50773C19.419 7.50773 18.3642 7.12902 17.5172 6.49014C16.5458 5.75776 15.8478 4.68345 15.6014 3.44521C15.5403 3.13927 15.5075 2.82355 15.5043 2.5H12.2388V11.4231L12.2348 16.3108C12.2348 17.6175 11.3839 18.7254 10.2044 19.1151C9.86205 19.2282 9.49233 19.2818 9.10736 19.2606C8.61598 19.2336 8.15551 19.0854 7.75528 18.8459C6.90357 18.3365 6.32612 17.4125 6.31047 16.3554C6.28582 14.7032 7.62148 13.3562 9.27246 13.3562C9.59836 13.3562 9.91134 13.4094 10.2044 13.506V11.0671V10.1904C9.8953 10.1446 9.58075 10.1207 9.26268 10.1207C7.4556 10.1207 5.76549 10.8719 4.55738 12.2252C3.64425 13.2478 3.09653 14.5526 3.01202 15.9207C2.9013 17.718 3.55896 19.4265 4.83437 20.687C5.02176 20.8721 5.21855 21.0438 5.42434 21.2023C6.51782 22.0438 7.85465 22.5 9.26268 22.5C9.58075 22.5 9.8953 22.4765 10.2044 22.4308C11.5197 22.2359 12.7333 21.6338 13.691 20.687C14.8678 19.5239 15.518 17.9797 15.5251 16.3362L15.5083 9.03743C16.0697 9.47052 16.6835 9.82889 17.3423 10.107C18.367 10.5394 19.4534 10.7584 20.5715 10.7581V8.38682V7.50694C20.5723 7.50773 20.5629 7.50773 20.5621 7.50773Z" fill="white"/>
</svg>
