<svg width="17" height="17" viewBox="0 0 17 17" fill="none" xmlns="http://www.w3.org/2000/svg">
<path d="M7.03439 15.2692C7.03439 15.5127 6.96563 15.7506 6.83681 15.953C6.70798 16.1554 6.52488 16.3132 6.31065 16.4063C6.09642 16.4995 5.86069 16.5238 5.63327 16.4763C5.40585 16.4289 5.19695 16.3116 5.03298 16.1395C4.86902 15.9674 4.75736 15.7481 4.71212 15.5093C4.66689 15.2706 4.6901 15.0231 4.77884 14.7982C4.86758 14.5733 5.01784 14.3811 5.21064 14.2459C5.40344 14.1106 5.63012 14.0385 5.86199 14.0385C6.17293 14.0385 6.47114 14.1681 6.69101 14.3989C6.91087 14.6298 7.03439 14.9428 7.03439 15.2692ZM13.4826 14.0385C13.2507 14.0385 13.024 14.1106 12.8312 14.2459C12.6384 14.3811 12.4882 14.5733 12.3994 14.7982C12.3107 15.0231 12.2875 15.2706 12.3327 15.5093C12.378 15.7481 12.4896 15.9674 12.6536 16.1395C12.8175 16.3116 13.0264 16.4289 13.2539 16.4763C13.4813 16.5238 13.717 16.4995 13.9312 16.4063C14.1455 16.3132 14.3286 16.1554 14.4574 15.953C14.5862 15.7506 14.655 15.5127 14.655 15.2692C14.655 14.9428 14.5315 14.6298 14.3116 14.3989C14.0917 14.1681 13.7935 14.0385 13.4826 14.0385ZM16.9741 4.37308L14.8836 11.5046C14.7741 11.8827 14.5514 12.2136 14.2487 12.4483C13.9459 12.683 13.5791 12.8091 13.2027 12.8077H6.16022C5.77844 12.8062 5.4074 12.6749 5.10265 12.4335C4.79791 12.192 4.57586 11.8535 4.46977 11.4685L1.81868 1.73077H0.586199C0.43073 1.73077 0.281628 1.66593 0.171694 1.55053C0.0617601 1.43512 0 1.27859 0 1.11538C0 0.952174 0.0617601 0.795649 0.171694 0.680242C0.281628 0.564835 0.43073 0.5 0.586199 0.5H1.81868C2.07325 0.500887 2.32069 0.588298 2.52398 0.749152C2.72727 0.910006 2.87546 1.13565 2.94638 1.39231L3.54064 3.57692H16.4136C16.5053 3.57689 16.5958 3.59945 16.6777 3.64281C16.7596 3.68616 16.8307 3.74909 16.8852 3.82653C16.9397 3.90397 16.9762 3.99377 16.9916 4.08869C17.0071 4.18362 17.0011 4.28102 16.9741 4.37308ZM15.62 4.80769H3.87551L5.59674 11.1308C5.63176 11.2593 5.70569 11.3724 5.80735 11.4528C5.90902 11.5333 6.03289 11.5769 6.16022 11.5769H13.2027C13.3281 11.577 13.4503 11.5348 13.5512 11.4565C13.652 11.3783 13.7264 11.2682 13.7632 11.1423L15.62 4.80769Z" fill="white"/>
</svg>
