<svg width="17" height="17" viewBox="0 0 17 17" fill="none" xmlns="http://www.w3.org/2000/svg">
<path d="M13.8538 6.85375L8.85378 11.8538C8.80734 11.9002 8.7522 11.9371 8.6915 11.9623C8.6308 11.9874 8.56574 12.0004 8.50003 12.0004C8.43432 12.0004 8.36926 11.9874 8.30856 11.9623C8.24786 11.9371 8.19271 11.9002 8.14628 11.8538L3.14628 6.85375C3.07627 6.78382 3.02859 6.6947 3.00926 6.59765C2.98994 6.50061 2.99984 6.40002 3.03772 6.3086C3.07559 6.21719 3.13974 6.13908 3.22204 6.08414C3.30433 6.0292 3.40108 5.99992 3.50003 6H13.5C13.599 5.99992 13.6957 6.0292 13.778 6.08414C13.8603 6.13908 13.9245 6.21719 13.9623 6.3086C14.0002 6.40002 14.0101 6.50061 13.9908 6.59765C13.9715 6.6947 13.9238 6.78382 13.8538 6.85375Z" fill="#343330"/>
</svg>
