<svg width="14" height="14" viewBox="0 0 14 14" fill="none" xmlns="http://www.w3.org/2000/svg">
<path d="M13.2797 12.4702C13.5727 12.7632 13.5727 13.2383 13.2797 13.5313C13.1337 13.6773 12.9417 13.7512 12.7497 13.7512C12.5577 13.7512 12.3658 13.6783 12.2198 13.5313L6.74975 8.06124L1.27975 13.5313C1.13375 13.6773 0.941749 13.7512 0.749749 13.7512C0.557749 13.7512 0.36575 13.6783 0.21975 13.5313C-0.07325 13.2383 -0.07325 12.7632 0.21975 12.4702L5.68975 7.00027L0.21975 1.5303C-0.07325 1.2373 -0.07325 0.762262 0.21975 0.469262C0.51275 0.176262 0.987755 0.176262 1.28075 0.469262L6.75076 5.93929L12.2207 0.469262C12.5137 0.176262 12.9887 0.176262 13.2817 0.469262C13.5747 0.762262 13.5747 1.2373 13.2817 1.5303L7.81175 7.00027L13.2797 12.4702Z" fill="#29271A"/>
</svg>
