<svg width="24" height="24" viewBox="0 0 24 24" fill="none" xmlns="http://www.w3.org/2000/svg">
<path d="M2.25 6C2.25 5.586 2.586 5.25 3 5.25H21C21.414 5.25 21.75 5.586 21.75 6C21.75 6.414 21.414 6.75 21 6.75H3C2.586 6.75 2.25 6.414 2.25 6ZM21 11.25H3C2.586 11.25 2.25 11.586 2.25 12C2.25 12.414 2.586 12.75 3 12.75H21C21.414 12.75 21.75 12.414 21.75 12C21.75 11.586 21.414 11.25 21 11.25ZM21 17.25H3C2.586 17.25 2.25 17.586 2.25 18C2.25 18.414 2.586 18.75 3 18.75H21C21.414 18.75 21.75 18.414 21.75 18C21.75 17.586 21.414 17.25 21 17.25Z" fill="#29271A"/>
</svg>
