<!-- <svg width="17" height="17" viewBox="0 0 17 17" fill="none" xmlns="http://www.w3.org/2000/svg">
<path fill-rule="evenodd" clip-rule="evenodd" d="M14.797 7.05817C15.668 5.47913 16 4.20617 16 3.34637C16 2.48657 15.7887 2.23997 15.5744 2.04074C15.36 1.84153 14.3934 1.24558 14.2288 1.13444C14.0641 1.0233 13.4355 0.807312 13.0412 1.37436C12.6471 1.94141 11.9047 3.07993 11.393 3.83626C10.5899 4.90755 11.2297 5.37783 11.4364 5.6597C11.8167 6.17838 12.0356 6.30631 12.0356 6.9432C12.0356 7.58008 10.2557 9.3895 9.83008 9.83533C9.40775 10.2778 7.63417 11.8325 7.08461 11.9157C6.53118 11.9994 5.79029 11.4135 5.63278 11.2649C4.83144 10.6497 4.37911 11.1161 4.01 11.3188C3.64089 11.5216 1.97318 12.5608 1.45638 12.9111C0.969977 13.2613 1.00038 13.8028 1.00038 13.8028C1.00038 13.8028 2.00358 15.3949 2.12518 15.586C2.27718 15.8089 2.64198 16 3.46279 16C4.2836 16 5.16059 15.8501 7.24481 14.7038C8.95017 13.7659 10.5759 12.2972 11.4271 11.4375C12.3088 10.5777 13.8022 8.86183 14.797 7.05817Z" fill="white" stroke="#002034"/>
</svg> -->
<svg width="33" height="33" viewBox="0 0 33 33" fill="none" xmlns="http://www.w3.org/2000/svg">
<path fill-rule="evenodd" clip-rule="evenodd" d="M29.5138 13.5202C31.3139 10.2569 32 7.62608 32 5.84916C32 4.07224 31.5634 3.5626 31.1205 3.15087C30.6773 2.73915 28.6797 1.50754 28.3394 1.27785C27.9991 1.04815 26.7 0.601777 25.8852 1.77368C25.0706 2.94558 23.5365 5.29851 22.4789 6.8616C20.8192 9.0756 22.1415 10.0475 22.5686 10.63C23.3544 11.702 23.8069 11.9664 23.8069 13.2826C23.8069 14.5988 20.1284 18.3383 19.2488 19.2597C18.376 20.174 14.7106 23.3872 13.5749 23.559C12.4311 23.7321 10.8999 22.5212 10.5744 22.2142C8.91831 20.9426 7.98349 21.9066 7.22067 22.3256C6.45784 22.7446 3.01125 24.8922 1.94319 25.6162C0.937952 26.3401 1.00078 27.459 1.00078 27.459C1.00078 27.459 3.07407 30.7495 3.32538 31.1444C3.63951 31.6051 4.39343 32 6.08977 32C7.78611 32 9.59856 31.6902 13.9059 29.3213C17.4303 27.3829 20.7902 24.3476 22.5493 22.5708C24.3714 20.7938 27.4578 17.2478 29.5138 13.5202Z" fill="white" stroke="#002034"/>
</svg>
