<svg width="209" height="209" viewBox="0 0 209 209" fill="none" xmlns="http://www.w3.org/2000/svg">
<path fill-rule="evenodd" clip-rule="evenodd" d="M61.5013 5C59.4959 19.181 52.9043 32.3733 42.6615 42.5196C32.4282 52.6563 19.1875 59.1218 5 61.0038V94.4922C28.2034 92.6708 50.0898 82.7132 66.7343 66.2822C83.3623 49.8676 93.5932 28.1433 95.7204 5H61.5013ZM57.0034 0C55.9809 14.7212 49.6353 28.5737 39.1427 38.9673C28.6501 49.361 14.7352 55.5778 0 56.4655V99.7595C1.67211 99.7153 3.33921 99.6309 5 99.5069C29.5215 97.6751 52.667 87.1949 70.247 69.8405C87.8256 52.4875 98.5991 29.4857 100.741 5C100.886 3.33972 100.991 1.67262 101.056 0H57.0034ZM5 147.849C19.1898 149.734 32.4374 156.184 42.6982 166.295C53.0282 176.475 59.6896 189.734 61.7305 204H95.7608C93.7589 180.626 83.56 158.639 66.8718 141.981C50.2343 125.374 28.3072 115.222 5 113.211V147.849ZM0 152.386C14.7411 153.282 28.6646 159.486 39.1887 169.856C49.7659 180.28 56.1817 194.195 57.2408 209H101.066C101.01 207.328 100.914 205.661 100.778 204C98.7641 179.294 88.0309 156.037 70.4041 138.443C52.8299 120.9 29.6358 110.217 5 108.194C3.33946 108.057 1.67236 107.96 0 107.903V152.386ZM147.515 204C149.56 189.845 156.165 176.686 166.4 166.561C176.624 156.447 189.837 149.985 204 148.081V113.242C180.709 115.377 158.828 125.594 142.214 142.215C125.598 158.836 115.394 180.717 113.276 204H147.515ZM151.998 209C153.069 194.304 159.432 180.487 169.916 170.115C180.401 159.743 194.288 153.527 209 152.61V107.905C207.327 107.971 205.66 108.077 204 108.222C179.378 110.371 156.229 121.122 138.677 138.68C121.126 156.238 110.388 179.386 108.257 204C108.113 205.66 108.008 207.327 107.943 209H151.998ZM209 99.5269V56.463C194.274 55.488 180.385 49.2492 169.875 38.8787C159.365 28.5084 152.944 14.7065 151.777 0H108.621C108.715 1.6731 108.849 3.34019 109.021 5C111.534 29.188 122.338 51.8315 139.689 69.035C157.041 86.2397 179.782 96.8548 204 99.1687C205.66 99.3273 207.327 99.4469 209 99.5269ZM204 94.1447C181.106 91.8476 159.626 81.7617 143.209 65.4844C126.804 49.2183 116.543 27.8474 114.049 5H147.32C149.445 19.1637 156.102 32.3133 166.363 42.4378C176.61 52.5488 189.828 59.0275 204 60.9769V94.1447Z" fill="#003E66"/>
<path fill-rule="evenodd" clip-rule="evenodd" d="M166.202 106.434C169.19 105.42 172.235 104.552 175.326 103.834C172.24 103.092 169.203 102.2 166.223 101.163C152.612 96.4248 140.205 88.6622 129.96 78.4122C119.697 68.1434 111.933 55.7068 107.208 42.0666C106.184 39.111 105.303 36.0989 104.57 33.04C103.837 36.0989 102.956 39.111 101.932 42.0666C97.2074 55.7068 89.4436 68.1434 79.1803 78.4122C68.9093 88.6889 56.4641 96.4653 42.8112 101.2C39.8654 102.221 36.8634 103.101 33.8149 103.834C36.8626 104.57 39.8637 105.453 42.8086 106.477C56.2479 111.152 68.5158 118.776 78.6884 128.834C88.9346 138.965 96.7337 151.248 101.549 164.745C102.562 167.584 103.443 170.477 104.187 173.415C104.937 170.479 105.824 167.588 106.843 164.75C111.723 151.163 119.628 138.815 130.006 128.664C140.284 118.611 152.663 111.03 166.202 106.434ZM104.203 157.78C109.385 145.562 116.95 134.44 126.51 125.089C135.901 115.904 146.959 108.679 159.036 103.771C146.887 98.7222 135.795 91.3237 126.424 81.9468C117.02 72.5383 109.611 61.4002 104.57 49.2024C99.5297 61.4002 92.1202 72.5383 82.7168 81.9468C73.3009 91.3679 62.1486 98.7918 49.9324 103.842C61.9296 108.815 72.8996 116.079 82.2039 125.279C91.6319 134.601 99.091 145.654 104.203 157.78Z" fill="#003E66"/>
<path fill-rule="evenodd" clip-rule="evenodd" d="M0 45.2233C1.68358 45.0707 3.35211 44.8348 5 44.5179C14.8003 42.6336 23.8702 37.8889 31.0313 30.8252C38.1893 23.7643 43.0551 14.7661 45.072 5C45.4121 3.3533 45.6712 1.68476 45.8466 0H0V45.2233ZM5 39.416C13.4717 37.6011 21.2959 33.405 27.52 27.2655C33.7241 21.1457 38.0175 13.4115 39.9545 5H5V39.416ZM46.076 209C45.9486 207.317 45.7353 205.648 45.4389 204C43.6411 194.004 38.7847 184.762 31.4767 177.585C24.2153 170.453 14.9568 165.777 5 164.129C3.35053 163.856 1.68189 163.666 0 163.562V209H46.076ZM40.3493 204C38.6128 195.36 34.3231 187.388 27.9733 181.152C21.6479 174.94 13.6356 170.801 5 169.205V204H40.3493ZM209 163.573C207.316 163.728 205.648 163.967 204 164.286C194.213 166.181 185.159 170.93 178.011 177.991C170.816 185.099 165.941 194.165 163.954 204C163.621 205.647 163.369 207.316 163.201 209H209V163.573ZM204 169.389C195.543 171.214 187.735 175.413 181.525 181.548C175.282 187.716 170.977 195.519 169.066 204H204V169.389ZM163.221 0C163.397 1.68474 163.656 3.35328 163.995 5C166.009 14.756 170.866 23.7462 178.011 30.8047C185.159 37.8659 194.213 42.6147 204 44.5104C205.648 44.8296 207.316 45.0679 209 45.2227V0H163.221ZM169.113 5C171.047 13.4026 175.332 21.13 181.525 27.2477C187.735 33.383 195.543 37.5817 204 39.407V5H169.113Z" fill="#003E66"/>
</svg>
