<svg width="25" height="25" viewBox="0 0 25 25" fill="none" xmlns="http://www.w3.org/2000/svg">
<path d="M20.2838 7.55748L16.9951 7.55306C17.0317 7.52217 17.0692 7.49222 17.1049 7.45946C17.39 7.20688 17.6198 6.8982 17.7802 6.55272C17.9405 6.20725 18.0278 5.83241 18.0366 5.45164C18.0495 5.03511 17.9771 4.62033 17.8239 4.23278C17.6707 3.84524 17.4399 3.49309 17.1456 3.19798C16.8514 2.90286 16.4999 2.67099 16.1129 2.51661C15.7258 2.36223 15.3112 2.2886 14.8946 2.30023C14.5137 2.30792 14.1384 2.39417 13.7924 2.55357C13.4463 2.71297 13.1368 2.94209 12.8834 3.22659C12.5327 3.63196 12.2474 4.08959 12.0378 4.58296C11.8296 4.08903 11.5455 3.63063 11.1959 3.22432C10.9432 2.93914 10.6344 2.70919 10.2887 2.54886C9.94308 2.38853 9.56806 2.30128 9.18714 2.29256C8.77059 2.27981 8.35584 2.35233 7.96834 2.50567C7.58083 2.659 7.22876 2.88992 6.93373 3.18425C6.6387 3.47858 6.40694 3.8301 6.25268 4.21723C6.09841 4.60437 6.0249 5.01894 6.03666 5.43552C6.04448 5.8163 6.13079 6.19138 6.29018 6.53728C6.44958 6.88319 6.67863 7.19248 6.96302 7.44583C6.9986 7.47681 7.03606 7.50686 7.07258 7.53972L3.78383 7.5353C3.38601 7.53477 3.00427 7.69229 2.72258 7.97322C2.4409 8.25414 2.28235 8.63546 2.28182 9.03329L2.27779 12.0333C2.27725 12.4311 2.43477 12.8128 2.7157 13.0945C2.99663 13.3762 3.37795 13.5348 3.77577 13.5353L3.76771 19.5353C3.76717 19.9331 3.92469 20.3149 4.20562 20.5965C4.48655 20.8782 4.86786 21.0368 5.26569 21.0373L10.8907 21.0449C10.9901 21.045 11.0856 21.0056 11.156 20.9354C11.2264 20.8652 11.2661 20.7698 11.2662 20.6704L11.2778 12.0454L3.77779 12.0353L3.78182 9.0353L11.2818 9.04538L11.2778 12.0454L12.7778 12.0474L12.7818 9.0474L20.2818 9.05748L20.2778 12.0575L12.7778 12.0474L12.7662 20.6724C12.7661 20.7718 12.8054 20.8673 12.8757 20.9377C12.9459 21.0081 13.0412 21.0478 13.1407 21.0479L18.7657 21.0555C19.1635 21.056 19.5452 20.8985 19.8269 20.6175C20.1086 20.3366 20.2672 19.9553 20.2677 19.5575L20.2758 13.5575C20.6736 13.558 21.0553 13.4005 21.337 13.1196C21.6187 12.8386 21.7772 12.4573 21.7778 12.0595L21.7818 9.05949C21.7823 8.66167 21.6248 8.27993 21.3439 7.99824C21.063 7.71656 20.6816 7.55801 20.2838 7.55748ZM7.95828 6.32216C7.8273 6.20323 7.72233 6.05851 7.64995 5.89708C7.57756 5.73565 7.53934 5.561 7.53767 5.3841C7.5332 5.17681 7.57016 4.97072 7.64636 4.7779C7.72256 4.58508 7.83648 4.4094 7.98144 4.26117C8.1264 4.11293 8.29949 3.99512 8.49056 3.91463C8.68163 3.83415 8.88685 3.7926 9.09418 3.79244L9.14012 3.7925C9.31702 3.79464 9.49157 3.83334 9.6528 3.90616C9.81404 3.97897 9.95848 4.08434 10.0771 4.21563C10.8624 5.10544 11.1379 6.57956 11.2342 7.49094C10.3193 7.39315 8.84691 7.11367 7.95828 6.32216ZM16.1145 6.33312C15.2238 7.11943 13.7468 7.39494 12.8317 7.49121C12.9446 6.50605 13.2559 5.06366 14.007 4.22185C14.126 4.09088 14.2707 3.9859 14.4321 3.91352C14.5936 3.84113 14.7682 3.80291 14.9451 3.80124L14.9911 3.8013C15.1984 3.80287 15.4033 3.84582 15.5939 3.92761C15.7844 4.00941 15.9567 4.12841 16.1006 4.27765C16.2446 4.42689 16.3573 4.60335 16.4322 4.79671C16.5071 4.99007 16.5426 5.19643 16.5367 5.40369C16.5334 5.57939 16.4941 5.75254 16.4211 5.91242C16.3482 6.07229 16.2432 6.21549 16.1126 6.33312L16.1145 6.33312Z" fill="white"/>
</svg>
