<svg width="23" height="20" viewBox="0 0 23 20" fill="none" xmlns="http://www.w3.org/2000/svg">
<g clip-path="url(#clip0_2539_11288)">
<path d="M22.9992 10C22.9992 13.3016 19.9326 16 16.0992 16C12.3024 16 9.19922 13.3016 9.19922 10C9.19922 6.69841 12.2659 4 16.0627 4C19.9326 4 22.9992 6.69841 22.9992 10Z" fill="#FFB600"/>
<path d="M16.0992 4C19.896 4 22.9992 6.69841 22.9992 10C22.9992 13.3016 19.9326 16 16.0992 16C12.3024 16 9.19922 13.3016 9.19922 10" fill="#F7981D"/>
<path d="M16.0996 4C19.8964 4 22.9996 6.69841 22.9996 10C22.9996 13.3016 19.9329 16 16.0996 16" fill="#FF8500"/>
<path d="M6.82698 4C3.06667 4.03175 0 6.69841 0 10C0 13.3016 3.06667 16 6.9 16C8.68889 16 10.2952 15.3968 11.5365 14.4444C11.7921 14.254 12.0111 14.0317 12.2302 13.8095H10.8063C10.6238 13.619 10.4413 13.3968 10.2952 13.2063H12.7413C12.8873 13.0159 13.0333 12.7937 13.1429 12.5714H9.89365C9.78413 12.381 9.6746 12.1587 9.60159 11.9365H13.3984C13.6175 11.3333 13.7635 10.6984 13.7635 10.0317C13.7635 9.5873 13.6905 9.1746 13.6175 8.7619H9.38254C9.41905 8.53968 9.49206 8.34921 9.56508 8.12698H13.3619C13.2889 7.90476 13.1794 7.68254 13.0698 7.49206H9.85714C9.96667 7.26984 10.1127 7.07937 10.2587 6.85714H12.7048C12.5587 6.63492 12.3762 6.4127 12.1571 6.22222H10.8063C11.0254 6 11.2444 5.80952 11.5 5.61905C10.2952 4.63492 8.65238 4.06349 6.86349 4.06349C6.86349 4 6.86349 4 6.82698 4Z" fill="#FF5050"/>
<path d="M0 9.99998C0 13.3016 3.06667 16 6.9 16C8.68889 16 10.2952 15.3968 11.5365 14.4444C11.7921 14.254 12.0111 14.0317 12.2302 13.8095H10.8063C10.6238 13.619 10.4413 13.3968 10.2952 13.2063H12.7413C12.8873 13.0159 13.0333 12.7936 13.1429 12.5714H9.89365C9.78413 12.3809 9.6746 12.1587 9.60159 11.9365H13.3984C13.6175 11.3333 13.7635 10.6984 13.7635 10.0317C13.7635 9.58729 13.6905 9.17459 13.6175 8.76189H9.38254C9.41905 8.53967 9.49206 8.34919 9.56508 8.12697H13.3619C13.2889 7.90475 13.1794 7.68252 13.0698 7.49205H9.85714C9.96667 7.26983 10.1127 7.07935 10.2587 6.85713H12.7048C12.5587 6.63491 12.3762 6.41268 12.1571 6.22221H10.8063C11.0254 5.99998 11.2444 5.80951 11.5 5.61903C10.2952 4.63491 8.65238 4.06348 6.86349 4.06348H6.82698" fill="#E52836"/>
<path d="M6.89919 16C8.68808 16 10.2944 15.3968 11.5357 14.4444C11.7912 14.254 12.0103 14.0317 12.2293 13.8095H10.8055C10.623 13.619 10.4405 13.3968 10.2944 13.2063H12.7405C12.8865 13.0159 13.0325 12.7936 13.142 12.5714H9.89284C9.78331 12.3809 9.67379 12.1587 9.60077 11.9365H13.3976C13.6166 11.3333 13.7627 10.6984 13.7627 10.0317C13.7627 9.58729 13.6897 9.17459 13.6166 8.76189H9.38173C9.41823 8.53967 9.49125 8.34919 9.56427 8.12697H13.3611C13.2881 7.90475 13.1786 7.68252 13.069 7.49205H9.85633C9.96585 7.26983 10.1119 7.07935 10.2579 6.85713H12.7039C12.5579 6.63491 12.3754 6.41268 12.1563 6.22221H10.8055C11.0246 5.99998 11.2436 5.80951 11.4992 5.61903C10.2944 4.63491 8.65157 4.06348 6.86268 4.06348H6.82617" fill="#CB2026"/>
<path d="M9.34779 11.5236L9.45732 10.9839C9.42081 10.9839 9.34779 11.0157 9.27478 11.0157C9.01922 11.0157 8.98271 10.8887 9.01922 10.8252L9.23827 9.71411H9.63986L9.74938 9.11093H9.3843L9.45732 8.72998H8.72716C8.72716 8.72998 8.28906 10.8252 8.28906 11.0792C8.28906 11.4601 8.54462 11.6189 8.87319 11.6189C9.09224 11.6189 9.27478 11.5554 9.34779 11.5236Z" fill="white"/>
<path d="M9.60156 10.5078C9.60156 11.3967 10.2952 11.6189 10.8793 11.6189C11.427 11.6189 11.646 11.5237 11.646 11.5237L11.792 10.9205C11.792 10.9205 11.3905 11.0792 11.0254 11.0792C10.2222 11.0792 10.3682 10.5713 10.3682 10.5713H11.8651C11.8651 10.5713 11.9746 10.1586 11.9746 9.99985C11.9746 9.58715 11.719 9.07921 10.9158 9.07921C10.1492 9.01572 9.60156 9.71413 9.60156 10.5078ZM10.8793 9.58715C11.2809 9.58715 11.2079 9.99985 11.2079 10.0316H10.4047C10.4047 9.99985 10.4778 9.58715 10.8793 9.58715Z" fill="white"/>
<path d="M15.5177 11.5237L15.6637 10.8253C15.6637 10.8253 15.2987 10.984 15.0431 10.984C14.532 10.984 14.3129 10.6348 14.3129 10.2539C14.3129 9.49195 14.751 9.07926 15.2621 9.07926C15.6272 9.07926 15.9193 9.26973 15.9193 9.26973L16.0288 8.60307C16.0288 8.60307 15.5907 8.44434 15.1891 8.44434C14.3494 8.44434 13.5098 9.07926 13.5098 10.2856C13.5098 11.0793 13.9479 11.6189 14.8241 11.6189C15.1161 11.6189 15.5177 11.5237 15.5177 11.5237Z" fill="white"/>
<path d="M5.33066 9.01562C4.81955 9.01562 4.45447 9.14261 4.45447 9.14261L4.34495 9.68229C4.34495 9.68229 4.67352 9.55531 5.14812 9.55531C5.40367 9.55531 5.62272 9.58705 5.62272 9.77753C5.62272 9.90452 5.58621 9.93626 5.58621 9.93626C5.58621 9.93626 5.36717 9.93626 5.25764 9.93626C4.63701 9.93626 3.94336 10.1585 3.94336 10.8886C3.94336 11.4601 4.38145 11.5871 4.63701 11.5871C5.14812 11.5871 5.36717 11.3013 5.40367 11.3013L5.36717 11.5553H6.02431L6.31637 9.80928C6.31637 9.04737 5.58621 9.01562 5.33066 9.01562ZM5.47669 10.4442C5.47669 10.5394 5.40367 11.0474 4.96558 11.0474C4.74653 11.0474 4.67352 10.8886 4.67352 10.7934C4.67352 10.6347 4.78304 10.4125 5.33066 10.4125C5.44018 10.4442 5.47669 10.4442 5.47669 10.4442Z" fill="white"/>
<path d="M7.00961 11.5871C7.19215 11.5871 8.10484 11.6188 8.10484 10.7617C8.10484 9.96801 7.22865 10.1267 7.22865 9.80928C7.22865 9.65055 7.37468 9.58706 7.63024 9.58706C7.73976 9.58706 8.14135 9.61881 8.14135 9.61881L8.25088 9.04738C8.25088 9.04738 7.99532 8.98389 7.55723 8.98389C7.00961 8.98389 6.46199 9.17436 6.46199 9.80928C6.46199 10.5394 7.37469 10.4759 7.37469 10.7617C7.37469 10.9521 7.11913 10.9839 6.93659 10.9839C6.60802 10.9839 6.27945 10.8886 6.27945 10.8886L6.16992 11.4601C6.20643 11.5236 6.38897 11.5871 7.00961 11.5871Z" fill="white"/>
<path d="M21.577 8.50781L21.431 9.36496C21.431 9.36496 21.1389 9.0475 20.7374 9.0475C20.0802 9.0475 19.4961 9.74591 19.4961 10.5713C19.4961 11.0792 19.7882 11.6189 20.4088 11.6189C20.8469 11.6189 21.1024 11.365 21.1024 11.365L21.0659 11.5872H21.7961L22.3437 8.53956L21.577 8.50781ZM21.2485 10.1904C21.2485 10.5396 21.0659 10.984 20.6643 10.984C20.4088 10.984 20.2628 10.7935 20.2628 10.4761C20.2628 9.96813 20.5183 9.65067 20.8469 9.65067C21.1024 9.65067 21.2485 9.8094 21.2485 10.1904Z" fill="white"/>
<path d="M1.35185 11.5554L1.78995 9.26972L1.86297 11.5554H2.37408L3.32328 9.26972L2.9217 11.5554H3.68836L4.27249 8.50781H3.06773L2.33757 10.3808L2.30106 8.50781H1.24233L0.658203 11.5554H1.35185Z" fill="white"/>
<path d="M12.6684 11.5553C12.8875 10.5077 12.924 9.65053 13.4351 9.80926C13.5081 9.39656 13.6176 9.23783 13.6906 9.0791C13.6906 9.0791 13.6541 9.0791 13.5446 9.0791C13.216 9.0791 12.9605 9.46005 12.9605 9.46005L13.0335 9.11085H12.3398L11.8652 11.587H12.6684V11.5553Z" fill="white"/>
<path d="M17.1959 9.01562C16.6848 9.01562 16.3197 9.14261 16.3197 9.14261L16.2102 9.68229C16.2102 9.68229 16.5388 9.55531 17.0134 9.55531C17.2689 9.55531 17.488 9.58705 17.488 9.77753C17.488 9.90452 17.4515 9.93626 17.4515 9.93626C17.4515 9.93626 17.2324 9.93626 17.1229 9.93626C16.5022 9.93626 15.8086 10.1585 15.8086 10.8886C15.8086 11.4601 16.2467 11.5871 16.5022 11.5871C17.0134 11.5871 17.2324 11.3013 17.2689 11.3013L17.2324 11.5553H17.8895L18.1816 9.80928C18.2181 9.04737 17.4514 9.01562 17.1959 9.01562ZM17.3784 10.4442C17.3784 10.5394 17.3054 11.0474 16.8673 11.0474C16.6483 11.0474 16.5753 10.8886 16.5753 10.7934C16.5753 10.6347 16.6848 10.4125 17.2324 10.4125C17.3419 10.4442 17.3419 10.4442 17.3784 10.4442Z" fill="white"/>
<path d="M18.8032 11.5553C19.0222 10.5077 19.0587 9.65053 19.5698 9.80926C19.6429 9.39656 19.7524 9.23783 19.8254 9.0791C19.8254 9.0791 19.7889 9.0791 19.6794 9.0791C19.3508 9.0791 19.0952 9.46005 19.0952 9.46005L19.1683 9.11085H18.4746L18 11.587H18.8032V11.5553Z" fill="white"/>
<path d="M8.21484 11.0792C8.21484 11.4601 8.4704 11.6189 8.79897 11.6189C9.05453 11.6189 9.27357 11.5554 9.34659 11.5236L9.45611 10.9839C9.41961 10.9839 9.34659 11.0157 9.27357 11.0157C9.01802 11.0157 8.98151 10.8887 9.01802 10.8252L9.23707 9.71411H9.63865L9.74818 9.11093H9.3831L9.45611 8.72998" fill="#DCE5E5"/>
<path d="M9.9668 10.5078C9.9668 11.3967 10.2954 11.6189 10.8795 11.6189C11.4271 11.6189 11.6462 11.5237 11.6462 11.5237L11.7922 10.9205C11.7922 10.9205 11.3906 11.0792 11.0255 11.0792C10.2224 11.0792 10.3684 10.5713 10.3684 10.5713H11.8652C11.8652 10.5713 11.9747 10.1586 11.9747 9.99985C11.9747 9.58715 11.7192 9.07921 10.916 9.07921C10.1493 9.01572 9.9668 9.71413 9.9668 10.5078ZM10.8795 9.58715C11.2811 9.58715 11.3541 9.99985 11.3541 10.0316H10.4049C10.4049 9.99985 10.4779 9.58715 10.8795 9.58715Z" fill="#DCE5E5"/>
<path d="M15.5179 11.5237L15.6639 10.8253C15.6639 10.8253 15.2988 10.984 15.0433 10.984C14.5321 10.984 14.3131 10.6348 14.3131 10.2539C14.3131 9.49195 14.7512 9.07926 15.2623 9.07926C15.6274 9.07926 15.9194 9.26973 15.9194 9.26973L16.029 8.60307C16.029 8.60307 15.5909 8.44434 15.1893 8.44434C14.3496 8.44434 13.875 9.07926 13.875 10.2856C13.875 11.0793 13.948 11.6189 14.8242 11.6189C15.1163 11.6189 15.5179 11.5237 15.5179 11.5237Z" fill="#DCE5E5"/>
<path d="M4.34495 9.71402C4.34495 9.71402 4.67352 9.58704 5.14812 9.58704C5.40367 9.58704 5.62272 9.61878 5.62272 9.80926C5.62272 9.93624 5.58621 9.96799 5.58621 9.96799C5.58621 9.96799 5.36717 9.96799 5.25764 9.96799C4.63701 9.96799 3.94336 10.1902 3.94336 10.9204C3.94336 11.4918 4.38145 11.6188 4.63701 11.6188C5.14812 11.6188 5.36717 11.3331 5.40367 11.3331L5.36717 11.587H6.02431L6.31637 9.841C6.31637 9.11085 5.58621 9.0791 5.29415 9.0791L4.34495 9.71402ZM5.84177 10.4442C5.84177 10.5394 5.40367 11.0474 4.96558 11.0474C4.74653 11.0474 4.67352 10.8886 4.67352 10.7934C4.67352 10.6347 4.78304 10.4124 5.33066 10.4124C5.44018 10.4442 5.84177 10.4442 5.84177 10.4442Z" fill="#DCE5E5"/>
<path d="M6.20703 11.5236C6.20703 11.5236 6.42608 11.5871 7.04671 11.5871C7.22925 11.5871 8.14195 11.6188 8.14195 10.7617C8.14195 9.96801 7.26576 10.1267 7.26576 9.80928C7.26576 9.65055 7.41179 9.58706 7.66735 9.58706C7.77687 9.58706 8.17846 9.61881 8.17846 9.61881L8.28798 9.04738C8.28798 9.04738 8.03243 8.98389 7.59433 8.98389C7.04671 8.98389 6.86417 9.17436 6.86417 9.80928C6.86417 10.5394 7.41179 10.4759 7.41179 10.7617C7.41179 10.9521 7.15624 10.9839 6.9737 10.9839" fill="#DCE5E5"/>
<path d="M21.4319 9.36495C21.4319 9.36495 21.1398 9.04749 20.7382 9.04749C20.0811 9.04749 19.862 9.7459 19.862 10.5713C19.862 11.0792 19.789 11.6189 20.4096 11.6189C20.8477 11.6189 21.1033 11.3649 21.1033 11.3649L21.0668 11.5872H21.7969L22.3446 8.53955L21.4319 9.36495ZM21.3954 10.1903C21.3954 10.5395 21.0668 10.984 20.6652 10.984C20.4096 10.984 20.2636 10.7935 20.2636 10.4761C20.2636 9.96812 20.5192 9.65066 20.8477 9.65066C21.1033 9.65066 21.3954 9.80939 21.3954 10.1903Z" fill="#DCE5E5"/>
<path d="M1.35185 11.5554L1.78995 9.26972L1.86297 11.5554H2.37408L3.32328 9.26972L2.9217 11.5554H3.68836L4.27249 8.50781H3.35979L2.33757 10.3808L2.30106 8.50781H1.89947L0.658203 11.5554H1.35185Z" fill="#DCE5E5"/>
<path d="M11.9023 11.5553H12.669C12.8881 10.5077 12.9246 9.65053 13.4357 9.80926C13.5087 9.39656 13.6182 9.23783 13.6912 9.0791C13.6912 9.0791 13.6547 9.0791 13.5452 9.0791C13.2166 9.0791 12.9611 9.46005 12.9611 9.46005L13.0341 9.11085" fill="#DCE5E5"/>
<path d="M16.2102 9.71402C16.2102 9.71402 16.5388 9.58704 17.0134 9.58704C17.2689 9.58704 17.488 9.61878 17.488 9.80926C17.488 9.93624 17.4514 9.96799 17.4514 9.96799C17.4514 9.96799 17.2324 9.96799 17.1229 9.96799C16.5022 9.96799 15.8086 10.1902 15.8086 10.9204C15.8086 11.4918 16.2467 11.6188 16.5022 11.6188C17.0134 11.6188 17.2324 11.3331 17.2689 11.3331L17.2324 11.587H17.8895L18.1816 9.841C18.1816 9.11085 17.4514 9.0791 17.1594 9.0791L16.2102 9.71402ZM17.707 10.4442C17.707 10.5394 17.2689 11.0474 16.8308 11.0474C16.6118 11.0474 16.5388 10.8886 16.5388 10.7934C16.5388 10.6347 16.6483 10.4124 17.1959 10.4124C17.3419 10.4442 17.707 10.4442 17.707 10.4442Z" fill="#DCE5E5"/>
<path d="M18.0352 11.5553H18.8018C19.0209 10.5077 19.0574 9.65053 19.5685 9.80926C19.6415 9.39656 19.751 9.23783 19.824 9.0791C19.824 9.0791 19.7875 9.0791 19.678 9.0791C19.3494 9.0791 19.0939 9.46005 19.0939 9.46005L19.1669 9.11085" fill="#DCE5E5"/>
</g>
<defs>
<clipPath id="clip0_2539_11288">
<rect width="23" height="20" fill="white"/>
</clipPath>
</defs>
</svg>
