<svg width="22" height="20" viewBox="0 0 22 20" fill="none" xmlns="http://www.w3.org/2000/svg">
<g clip-path="url(#clip0_2539_11317)">
<path d="M8.06641 12.873L9.18387 7.15869H10.9299L9.84736 12.873H8.06641Z" fill="#3C58BF"/>
<path d="M8.06641 12.873L9.49815 7.15869H10.9299L9.84736 12.873H8.06641Z" fill="#293688"/>
<path d="M16.169 7.22223C15.8198 7.09525 15.2611 6.96826 14.5627 6.96826C12.8166 6.96826 11.5595 7.76191 11.5595 8.90477C11.5595 9.76191 12.4325 10.2064 13.1309 10.4921C13.8293 10.7778 14.0389 10.9683 14.0389 11.2222C14.0389 11.6032 13.4801 11.7937 12.9913 11.7937C12.2928 11.7937 11.9087 11.6984 11.3151 11.4762L11.0706 11.381L10.8262 12.6825C11.2452 12.8413 12.0135 13 12.8166 13C14.6674 13 15.8897 12.2064 15.8897 11C15.8897 10.3333 15.4357 9.8254 14.3881 9.4127C13.7595 9.12699 13.3754 8.96826 13.3754 8.68255C13.3754 8.42858 13.6897 8.17461 14.3881 8.17461C14.9817 8.17461 15.4008 8.26985 15.7151 8.39683L15.8897 8.46032L16.169 7.22223Z" fill="#3C58BF"/>
<path d="M16.169 7.22223C15.8198 7.09525 15.2611 6.96826 14.5627 6.96826C12.8166 6.96826 11.8738 7.76191 11.8738 8.90477C11.8738 9.76191 12.4325 10.2064 13.1309 10.4921C13.8293 10.7778 14.0389 10.9683 14.0389 11.2222C14.0389 11.6032 13.4801 11.7937 12.9913 11.7937C12.2928 11.7937 11.9087 11.6984 11.3151 11.4762L11.0706 11.381L10.8262 12.6825C11.2452 12.8413 12.0135 13 12.8166 13C14.6674 13 15.8897 12.2064 15.8897 11C15.8897 10.3333 15.4357 9.8254 14.3881 9.4127C13.7595 9.12699 13.3754 8.96826 13.3754 8.68255C13.3754 8.42858 13.6897 8.17461 14.3881 8.17461C14.9817 8.17461 15.4008 8.26985 15.7151 8.39683L15.8897 8.46032L16.169 7.22223Z" fill="#293688"/>
<path d="M19.1715 7.15869C18.7525 7.15869 18.4382 7.19044 18.2636 7.57139L15.6445 12.873H17.5302L17.8795 11.9206H20.1144L20.3239 12.873H22.0001L20.5334 7.15869H19.1715ZM18.3683 10.9682C18.4731 10.6825 19.0668 9.28568 19.0668 9.28568C19.0668 9.28568 19.2064 8.93647 19.3112 8.71425L19.416 9.25393C19.416 9.25393 19.7652 10.6825 19.835 11H18.3683V10.9682Z" fill="#3C58BF"/>
<path d="M19.5906 7.15869C19.1715 7.15869 18.8572 7.19044 18.6826 7.57139L15.6445 12.873H17.5302L17.8795 11.9206H20.1144L20.3239 12.873H22.0001L20.5334 7.15869H19.5906ZM18.3683 10.9682C18.508 10.6508 19.0668 9.28568 19.0668 9.28568C19.0668 9.28568 19.2064 8.93647 19.3112 8.71425L19.416 9.25393C19.416 9.25393 19.7652 10.6825 19.835 11H18.3683V10.9682Z" fill="#293688"/>
<path d="M4.85342 11.1587L4.67882 10.3333C4.36453 9.38091 3.35184 8.33329 2.23438 7.82535L3.8058 12.9047H5.69152L8.52009 7.19043H6.63438L4.85342 11.1587Z" fill="#3C58BF"/>
<path d="M4.85342 11.1587L4.67882 10.3333C4.36453 9.38091 3.35184 8.33329 2.23438 7.82535L3.8058 12.9047H5.69152L8.52009 7.19043H6.98358L4.85342 11.1587Z" fill="#293688"/>
<path d="M0 7.15869L0.314286 7.22218C2.54921 7.69837 4.08571 8.90472 4.67937 10.3333L4.05079 7.63488C3.94603 7.25393 3.63175 7.15869 3.24762 7.15869H0Z" fill="#FFBC00"/>
<path d="M0 7.15869C2.23492 7.63488 4.08571 8.87298 4.67937 10.3015L4.08571 8.04758C3.98095 7.66663 3.63175 7.44441 3.24762 7.44441L0 7.15869Z" fill="#F7981D"/>
<path d="M0 7.15869C2.23492 7.63488 4.08571 8.87298 4.67937 10.3015L4.26032 9.06345C4.15556 8.6825 4.01587 8.30155 3.52698 8.14282L0 7.15869Z" fill="#ED7C00"/>
<path d="M6.59969 10.9685L5.41239 9.88918L4.85366 11.0955L4.71398 10.3019C4.39969 9.3495 3.38699 8.30188 2.26953 7.79395L3.84096 12.8733H5.72667L6.59969 10.9685Z" fill="#051244"/>
<path d="M9.84736 12.8734L8.34577 11.4766L8.06641 12.8734H9.84736Z" fill="#051244"/>
<path d="M13.8623 10.9053C14.002 11.0323 14.0718 11.1275 14.0369 11.2545C14.0369 11.6354 13.4782 11.8259 12.9893 11.8259C12.2909 11.8259 11.9068 11.7307 11.3131 11.5084L11.0687 11.4132L10.8242 12.7148C11.2433 12.8735 12.0115 13.0323 12.8147 13.0323C13.9322 13.0323 14.8401 12.7465 15.3639 12.2386L13.8623 10.9053Z" fill="#051244"/>
<path d="M15.8887 12.8731H17.5299L17.8791 11.9207H20.1141L20.3236 12.8731H21.9998L21.4061 10.5556L19.3109 8.71436L19.4157 9.22229C19.4157 9.22229 19.7649 10.6509 19.8347 10.9683H18.368C18.5077 10.6509 19.0665 9.28578 19.0665 9.28578C19.0665 9.28578 19.2061 8.93658 19.3109 8.71436" fill="#051244"/>
</g>
<defs>
<clipPath id="clip0_2539_11317">
<rect width="22" height="20" fill="white"/>
</clipPath>
</defs>
</svg>
