<svg width="36" height="36" viewBox="0 0 36 36" fill="none" xmlns="http://www.w3.org/2000/svg">
<path d="M9 13C9 12.4477 9.44772 12 10 12H26C26.5523 12 27 12.4477 27 13V27C27 27.5523 26.5523 28 26 28H10C9.44772 28 9 27.5523 9 27V13Z" fill="#002034"/>
<ellipse cx="18" cy="13" rx="9" ry="4" fill="#FDF2DC"/>
<ellipse cx="18" cy="11" rx="7" ry="2" fill="#FFE9BD"/>
<ellipse cx="18" cy="10.5" rx="5" ry="1.5" fill="#FBDFA7"/>
<path d="M17.2076 7.02937C17.6079 6.50936 18.3921 6.50936 18.7924 7.02937L20.2247 8.89001C20.7309 9.54757 20.2622 10.5 19.4323 10.5H16.5677C15.7378 10.5 15.2691 9.54757 15.7753 8.89001L17.2076 7.02937Z" fill="#FACF7A"/>
</svg>
