<svg width="36" height="36" viewBox="0 0 36 36" fill="none" xmlns="http://www.w3.org/2000/svg">
<path d="M7 22C7 21.4477 7.44772 21 8 21H28C28.5523 21 29 21.4477 29 22V25C29 25.5523 28.5523 26 28 26H8C7.44772 26 7 25.5523 7 25V22Z" fill="#002034"/>
<rect x="7" y="19" width="22" height="3" fill="#FF8A00"/>
<rect x="7" y="19" width="22" height="3" fill="#FF8A00"/>
<rect x="7" y="19" width="22" height="3" fill="#FF8A00"/>
<path d="M7 16.5H29V19H7V16.5Z" fill="#AAB569"/>
<path d="M29 16.5C29 18.433 24.0751 19 18 19C11.9249 19 7 18.433 7 16.5C7 14.567 11.9249 13 18 13C24.0751 13 29 14.567 29 16.5Z" fill="#FDF2DC"/>
<ellipse cx="18" cy="15" rx="7" ry="2" fill="#FFE9BD"/>
<ellipse cx="18.036" cy="14.6247" rx="5" ry="1.5" transform="rotate(-1.43394 18.036 14.6247)" fill="#FBDFA7"/>
<path d="M19 15C19 15.5523 18.5523 16 18 16C17.4477 16 17 15.5523 17 15C17 14.4477 17.4477 14 18 14C18.5523 14 19 14.4477 19 15Z" fill="#FE5925"/>
<path d="M19 15C19 15.5523 18.5523 16 18 16C17.4477 16 17 15.5523 17 15C17 14.4477 17.4477 14 18 14C18.5523 14 19 14.4477 19 15Z" fill="#FE5925"/>
<path d="M19 13C19 13.5523 18.5523 14 18 14C17.4477 14 17 13.5523 17 13C17 12.4477 17.4477 12 18 12C18.5523 12 19 12.4477 19 13Z" fill="#FE5925"/>
<path d="M19 13C19 13.5523 18.5523 14 18 14C17.4477 14 17 13.5523 17 13C17 12.4477 17.4477 12 18 12C18.5523 12 19 12.4477 19 13Z" fill="#FE5925"/>
<path d="M17.5 14.1338C17.5 14.6861 17.0523 15.1338 16.5 15.1338C15.9477 15.1338 15.5 14.6861 15.5 14.1338C15.5 13.5815 15.9477 13.1338 16.5 13.1338C17.0523 13.1338 17.5 13.5815 17.5 14.1338Z" fill="#FE5925"/>
<path d="M20.5 14.0631C20.5 14.6154 20.0523 15.0631 19.5 15.0631C18.9477 15.0631 18.5 14.6154 18.5 14.0631C18.5 13.5108 18.9477 13.0631 19.5 13.0631C20.0523 13.0631 20.5 13.5108 20.5 14.0631Z" fill="#FE5925"/>
</svg>
