<svg width="36" height="36" viewBox="0 0 36 36" fill="none" xmlns="http://www.w3.org/2000/svg">
<path d="M25.7 7.5L21.7 4.5" stroke="#685F5F"/>
<line x1="21.4981" y1="4.04331" x2="19.4981" y2="27.0433" stroke="#685F5F"/>
<path d="M13 11H23V30H13V11Z" fill="#85D1D6" fill-opacity="0.63"/>
<path d="M15.2735 8C15.5021 7.29618 16.4979 7.29618 16.7265 8C16.8288 8.31476 17.1221 8.52786 17.4531 8.52786C18.1931 8.52786 18.5008 9.47485 17.9021 9.90983C17.6344 10.1044 17.5223 10.4492 17.6246 10.7639C17.8533 11.4678 17.0477 12.053 16.449 11.618C16.1813 11.4235 15.8187 11.4235 15.551 11.618C14.9523 12.053 14.1467 11.4678 14.3754 10.7639C14.4777 10.4492 14.3656 10.1044 14.0979 9.90983C13.4992 9.47485 13.8069 8.52786 14.5469 8.52786C14.8779 8.52786 15.1712 8.31476 15.2735 8Z" fill="#FF8A00"/>
<path d="M15.2735 8C15.5021 7.29618 16.4979 7.29618 16.7265 8C16.8288 8.31476 17.1221 8.52786 17.4531 8.52786C18.1931 8.52786 18.5008 9.47485 17.9021 9.90983C17.6344 10.1044 17.5223 10.4492 17.6246 10.7639C17.8533 11.4678 17.0477 12.053 16.449 11.618C16.1813 11.4235 15.8187 11.4235 15.551 11.618C14.9523 12.053 14.1467 11.4678 14.3754 10.7639C14.4777 10.4492 14.3656 10.1044 14.0979 9.90983C13.4992 9.47485 13.8069 8.52786 14.5469 8.52786C14.8779 8.52786 15.1712 8.31476 15.2735 8Z" fill="#FF8A00"/>
<path d="M15.2735 8C15.5021 7.29618 16.4979 7.29618 16.7265 8C16.8288 8.31476 17.1221 8.52786 17.4531 8.52786C18.1931 8.52786 18.5008 9.47485 17.9021 9.90983C17.6344 10.1044 17.5223 10.4492 17.6246 10.7639C17.8533 11.4678 17.0477 12.053 16.449 11.618C16.1813 11.4235 15.8187 11.4235 15.551 11.618C14.9523 12.053 14.1467 11.4678 14.3754 10.7639C14.4777 10.4492 14.3656 10.1044 14.0979 9.90983C13.4992 9.47485 13.8069 8.52786 14.5469 8.52786C14.8779 8.52786 15.1712 8.31476 15.2735 8Z" fill="#FF8A00"/>
</svg>
