<svg width="36" height="36" viewBox="0 0 36 36" fill="none" xmlns="http://www.w3.org/2000/svg">
<path d="M31 17.5C31 19.2072 30.6637 20.3977 30.0104 21.9749C29.3571 23.5521 28.3995 24.9852 27.1924 26.1924C25.9852 27.3996 24.5521 28.3571 22.9749 29.0104C21.3977 29.6637 19.7072 30 18 30C16.2928 30 14.6023 29.6637 13.0251 29.0104C11.4479 28.3571 10.0148 27.3995 8.80761 26.1924C7.60045 24.9852 6.64288 23.5521 5.98957 21.9749C5.33625 20.3977 5 19.2072 5 17.5L18 17L31 17.5Z" fill="#002034"/>
<ellipse cx="18" cy="17.5" rx="13" ry="3.5" fill="#D9D9D9"/>
<path d="M29.5 16.5C29.5 19.2615 24 19.5 18.5 20C12.5 19.5 7 19.2615 7 16.5C7 13.7386 13.5 13.5 18.5 10.5C23.4675 13.5 27.9676 13.9383 29.5 16.5Z" fill="#AAB569"/>
<circle cx="14" cy="15" r="1.75" fill="#F4AE5D" stroke="#FF8A00" stroke-width="0.5"/>
<circle cx="17" cy="16" r="1.75" fill="#F4AE5D" stroke="#FF8A00" stroke-width="0.5"/>
</svg>
